<svg width="49" height="49" viewBox="0 0 49 49" fill="none" xmlns="http://www.w3.org/2000/svg">
<rect width="49" height="49" rx="1" fill="url(#paint0_linear_14_23)"/>
<path d="M13.8083 16.3334H19.0914C19.6757 16.3334 20.0408 16.6012 20.1869 17.1368L25.616 32.6694C25.6323 32.7181 25.6404 32.7993 25.6404 32.9129C25.6404 33.0103 25.5836 33.1158 25.47 33.2294C25.3726 33.3268 25.2509 33.3755 25.1048 33.3755H20.6008C20.1139 33.3755 19.7974 33.1726 19.6513 32.7668L19.067 31.16H13.8327L13.2484 32.7668C13.1023 33.1726 12.7858 33.3755 12.2989 33.3755H7.79489C7.64881 33.3755 7.51897 33.3268 7.40535 33.2294C7.30797 33.1158 7.25928 33.0103 7.25928 32.9129C7.25928 32.7993 7.26739 32.7181 7.28362 32.6694L12.7127 17.1368C12.8588 16.6012 13.224 16.3334 13.8083 16.3334ZM15.0743 26.4126H17.8254L16.4377 21.8842L15.0743 26.4126Z" fill="white"/>
<path d="M35.2359 22.4198C35.4144 22.2088 35.5037 21.9573 35.5037 21.6651C35.5037 21.373 35.4144 21.1133 35.2359 20.886C35.0736 20.6426 34.8301 20.5209 34.5055 20.5209H32.4605V22.7363H34.5055C34.8301 22.7363 35.0736 22.6308 35.2359 22.4198ZM32.4605 26.8021V29.188H34.7246C35.0979 29.188 35.3739 29.0662 35.5524 28.8228C35.7472 28.5631 35.8446 28.2791 35.8446 27.9707V27.9463C35.8446 27.638 35.7391 27.3702 35.5281 27.1429C35.3333 26.9157 35.0655 26.8021 34.7246 26.8021H32.4605ZM35.3576 33.3755H27.0314C26.8528 33.3755 26.6986 33.3105 26.5688 33.1807C26.4389 33.0509 26.374 32.8967 26.374 32.7181V16.9907C26.374 16.8122 26.4389 16.658 26.5688 16.5281C26.6986 16.3983 26.8528 16.3334 27.0314 16.3334H35.1142C37.4189 16.3334 39.115 16.7554 40.2025 17.5994C41.3061 18.4271 41.858 19.685 41.858 21.373V21.446C41.858 22.1439 41.6551 22.7688 41.2493 23.3206C40.8436 23.8562 40.3972 24.2458 39.9103 24.4892C40.5595 24.7489 41.1033 25.2115 41.5415 25.8769C41.9959 26.5262 42.2232 27.2403 42.2232 28.0194C42.2232 31.5901 39.9347 33.3755 35.3576 33.3755Z" fill="white"/>
<defs>
<linearGradient id="paint0_linear_14_23" x1="49" y1="49" x2="0" y2="0" gradientUnits="userSpaceOnUse">
<stop stop-color="#FF875E"/>
<stop offset="1" stop-color="#FF3E47"/>
</linearGradient>
</defs>
</svg>
